<svg width="60" height="60" viewBox="0 0 60 60" fill="none" xmlns="http://www.w3.org/2000/svg">
  <g id="f6348b94">
    <g id="81b75e8c">
      <path d="M12.5 53V48H47.5V53H12.5ZM12.5 44.25L9.3125 24.1875C9.22917 24.1875 9.13542 24.1979 9.03125 24.2188C8.92708 24.2396 8.83333 24.25 8.75 24.25C7.70833 24.25 6.82292 23.8854 6.09375 23.1562C5.36458 22.4271 5 21.5417 5 20.5C5 19.4583 5.36458 18.5729 6.09375 17.8438C6.82292 17.1146 7.70833 16.75 8.75 16.75C9.79167 16.75 10.6771 17.1146 11.4062 17.8438C12.1354 18.5729 12.5 19.4583 12.5 20.5C12.5 20.7917 12.4688 21.0625 12.4062 21.3125C12.3438 21.5625 12.2708 21.7917 12.1875 22L20 25.5L27.8125 14.8125C27.3542 14.4792 26.9792 14.0417 26.6875 13.5C26.3958 12.9583 26.25 12.375 26.25 11.75C26.25 10.7083 26.6146 9.82292 27.3438 9.09375C28.0729 8.36458 28.9583 8 30 8C31.0417 8 31.9271 8.36458 32.6562 9.09375C33.3854 9.82292 33.75 10.7083 33.75 11.75C33.75 12.375 33.6042 12.9583 33.3125 13.5C33.0208 14.0417 32.6458 14.4792 32.1875 14.8125L40 25.5L47.8125 22C47.7292 21.7917 47.6562 21.5625 47.5938 21.3125C47.5312 21.0625 47.5 20.7917 47.5 20.5C47.5 19.4583 47.8646 18.5729 48.5938 17.8438C49.3229 17.1146 50.2083 16.75 51.25 16.75C52.2917 16.75 53.1771 17.1146 53.9062 17.8438C54.6354 18.5729 55 19.4583 55 20.5C55 21.5417 54.6354 22.4271 53.9062 23.1562C53.1771 23.8854 52.2917 24.25 51.25 24.25C51.1667 24.25 51.0729 24.2396 50.9688 24.2188C50.8646 24.1979 50.7708 24.1875 50.6875 24.1875L47.5 44.25H12.5ZM16.75 39.25H43.25L44.875 28.8125L38.3125 31.6875L30 20.25L21.6875 31.6875L15.125 28.8125L16.75 39.25Z" fill="black" fill-opacity="0.2"></path>
      <path d="M46 49.5V51.5H14V49.5H46ZM30 9.5C30.6484 9.5 31.151 9.70963 31.5957 10.1543C32.0404 10.599 32.25 11.1016 32.25 11.75C32.25 12.1309 32.1642 12.4696 31.9922 12.7891C31.7979 13.1498 31.5668 13.4097 31.3057 13.5996L30.0889 14.4834L30.9766 15.6973L38.7891 26.3848L39.5059 27.3652L40.6133 26.8691L48.4258 23.3691L49.3652 22.9473L49.2061 23.9521L46.2197 42.75H13.7803L10.7939 23.9521L10.6338 22.9473L11.5742 23.3691L19.3867 26.8691L20.4941 27.3652L21.2109 26.3848L29.0234 15.6973L29.9111 14.4834L28.6943 13.5996C28.4332 13.4097 28.2021 13.1498 28.0078 12.7891C27.8358 12.4696 27.75 12.1309 27.75 11.75C27.75 11.1016 27.9596 10.599 28.4043 10.1543C28.849 9.70963 29.3516 9.5 30 9.5ZM28.7861 19.3682L21.1826 29.8281L15.7266 27.4385L13.2227 26.3408L13.6426 29.043L15.2676 39.4805L15.4658 40.75H44.5342L44.7324 39.4805L46.3574 29.043L46.7773 26.3408L44.2734 27.4385L38.8164 29.8281L31.2139 19.3682L30 17.6982L28.7861 19.3682ZM8.75 18.25C9.39838 18.25 9.90104 18.4596 10.3457 18.9043C10.7904 19.349 11 19.8516 11 20.5C11 20.6846 10.9803 20.8317 10.9512 20.9482C10.9028 21.1419 10.8497 21.3064 10.7949 21.4434L10.2969 22.6875H9.3125C9.10788 22.6875 8.91329 22.7129 8.7373 22.748C8.73449 22.7486 8.7317 22.7486 8.72949 22.749C8.09101 22.7446 7.59426 22.5357 7.1543 22.0957C6.70963 21.651 6.5 21.1484 6.5 20.5C6.5 19.8516 6.70963 19.349 7.1543 18.9043C7.59896 18.4596 8.10162 18.25 8.75 18.25ZM51.25 18.25C51.8984 18.25 52.401 18.4596 52.8457 18.9043C53.2904 19.349 53.5 19.8516 53.5 20.5C53.5 21.1484 53.2904 21.651 52.8457 22.0957C52.4055 22.5359 51.9085 22.7448 51.2695 22.749C51.2676 22.7487 51.2651 22.7485 51.2627 22.748C51.0867 22.7129 50.8921 22.6875 50.6875 22.6875H49.7031L49.2051 21.4434C49.1503 21.3064 49.0972 21.1419 49.0488 20.9482C49.0197 20.8317 49 20.6846 49 20.5C49 19.8516 49.2096 19.349 49.6543 18.9043C50.099 18.4596 50.6016 18.25 51.25 18.25Z" stroke="black" stroke-opacity="0.4" stroke-width="3"></path>
    </g>
  </g>
</svg>